<?xml version="1.0" standalone="no"?>
<!DOCTYPE svg PUBLIC "-//W3C//DTD SVG 20010904//EN"
 "http://www.w3.org/TR/2001/REC-SVG-20010904/DTD/svg10.dtd">
<svg version="1.0" xmlns="http://www.w3.org/2000/svg"
 width="512.000000pt" height="512.000000pt" viewBox="0 0 512.000000 512.000000"
 preserveAspectRatio="xMidYMid meet">

<g transform="translate(0.000000,512.000000) scale(0.100000,-0.100000)"
fill="#000000" stroke="none">
<path d="M0 2560 l0 -2560 2560 0 2560 0 0 2560 0 2560 -2560 0 -2560 0 0
-2560z m2655 1557 c45 -22 1171 -668 1225 -702 19 -12 43 -31 53 -42 17 -20
14 -23 -220 -160 -267 -156 -273 -159 -336 -168 -86 -13 -134 6 -410 166 -143
84 -284 162 -311 175 -70 33 -127 31 -201 -5 -112 -55 -708 -406 -706 -416 2
-5 315 -190 697 -410 381 -220 694 -402 694 -405 0 -3 -116 -74 -257 -157
-293 -173 -311 -179 -395 -141 -91 42 -1231 719 -1266 751 -18 17 -37 47 -42
67 -5 19 -10 167 -10 329 0 277 1 297 20 335 12 23 33 50 48 62 41 32 1273
736 1302 744 31 10 63 3 115 -23z m-25 -848 c76 -34 1219 -712 1261 -747 23
-20 42 -47 49 -70 13 -48 13 -595 0 -642 -5 -20 -24 -50 -42 -67 -26 -24
-1149 -677 -1285 -747 -74 -37 -61 -43 -738 345 -347 199 -645 372 -663 386
-18 14 -31 30 -29 36 4 13 394 246 476 284 71 34 165 36 232 6 25 -11 169 -91
318 -178 256 -148 276 -158 334 -162 42 -4 73 -1 97 9 34 14 728 413 742 427
3 3 -310 188 -697 411 -387 223 -704 407 -704 410 -1 7 486 293 523 307 45 17
75 15 126 -8z"/>
</g>
</svg>
